<?xml version="1.0" encoding="UTF-8" standalone="no"?>
<!-- Created with Inkscape (http://www.inkscape.org/) -->

<svg
   xmlns:dc="http://purl.org/dc/elements/1.1/"
   xmlns:cc="http://creativecommons.org/ns#"
   xmlns:rdf="http://www.w3.org/1999/02/22-rdf-syntax-ns#"
   xmlns:svg="http://www.w3.org/2000/svg"
   xmlns="http://www.w3.org/2000/svg"
   version="1.1"
   width="210mm"
   height="297mm"
   id="svg2">
  <defs
     id="defs4" />
  <metadata
     id="metadata7">
    <rdf:RDF>
      <cc:Work
         rdf:about="">
        <dc:format>image/svg+xml</dc:format>
        <dc:type
           rdf:resource="http://purl.org/dc/dcmitype/StillImage" />
        <dc:title></dc:title>
      </cc:Work>
    </rdf:RDF>
  </metadata>
  <g
     id="layer1">
    <g
       id="g3029">
      <g
         transform="matrix(0.03611717,0,0,-0.03611717,-0.98453775,185.64359)"
         id="g2989"
         style="fill:#000000;stroke:none">
        <path
           d="m 270,1875 c 0,-5 -31,-148 -45,-212 l -5,-23 185,0 185,0 -5,-22 c -3,-13 -39,-180 -81,-373 -90,-413 -97,-491 -53,-585 44,-94 112,-147 219,-169 41,-9 367,-11 1259,-9 l 1205,3 28,163 c 38,222 76,302 144,302 56,0 55,-64 -1,-299 -19,-79 -35,-150 -35,-157 0,-12 217,-14 1442,-12 l 1443,3 22,100 c 32,143 35,135 -42,135 -36,0 -65,2 -65,4 0,2 11,26 25,53 14,27 44,129 67,228 52,228 57,342 18,419 -34,67 -92,123 -158,154 -57,27 -58,27 -335,30 -180,2 -296,-1 -332,-8 -187,-39 -327,-197 -414,-469 -27,-82 -43,-152 -82,-358 l -10,-53 -184,0 c -179,0 -184,1 -199,22 -9,12 -16,32 -16,43 0,11 30,149 67,307 l 68,288 185,0 185,0 23,103 c 12,56 22,108 22,115 0,9 -45,12 -180,12 -99,0 -180,4 -180,9 0,4 11,63 25,131 14,68 25,124 25,127 0,2 -124,2 -277,1 l -276,-3 -122,-573 c -67,-315 -125,-575 -128,-579 -14,-13 -15,3 -5,62 13,82 3,166 -28,230 l -27,54 50,50 c 70,71 108,154 148,328 19,81 35,151 35,156 0,4 -125,6 -277,5 l -278,-3 -22,-129 c -35,-204 -63,-268 -124,-281 -70,-16 -75,36 -24,244 19,78 35,149 35,157 0,12 -42,14 -274,14 l -274,0 -22,-92 c -44,-189 -43,-303 5,-397 l 24,-48 -45,-44 c -56,-54 -117,-162 -140,-246 -15,-55 -20,-63 -40,-63 -29,0 -29,4 -5,44 19,31 51,127 51,153 0,10 -54,13 -274,13 -253,0 -275,-1 -280,-17 -2,-10 -10,-45 -16,-77 -16,-78 -51,-116 -109,-116 -23,0 -41,4 -41,9 0,11 48,238 56,263 5,16 33,18 347,20 l 342,3 23,110 c 40,189 21,292 -70,385 -22,23 -65,54 -96,68 -57,27 -58,27 -335,30 -180,2 -296,-1 -332,-8 -187,-39 -327,-197 -414,-469 -27,-82 -43,-152 -82,-359 l -10,-52 -188,0 c -158,0 -191,2 -201,16 -11,12 2,90 80,460 l 94,444 186,0 186,0 18,93 c 10,50 20,104 23,120 l 6,27 -647,0 c -355,0 -646,-2 -646,-5 z m 1190,-92 c 0,-10 -3,-28 -6,-40 -6,-23 -8,-23 -190,-23 -182,0 -184,0 -189,-22 -3,-13 -41,-187 -84,-388 -44,-201 -87,-394 -95,-430 -18,-76 -20,-149 -5,-183 21,-47 41,-52 242,-55 203,-4 196,-2 181,-60 l -6,-22 -297,0 c -327,0 -355,4 -423,60 -20,17 -47,51 -59,77 -38,78 -31,139 69,603 l 89,415 -185,3 -184,2 6,23 c 3,12 6,30 6,40 0,16 34,17 565,17 531,0 565,-1 565,-17 z m 3130,8 c 0,-4 -11,-63 -25,-131 -14,-68 -25,-124 -25,-126 0,-2 81,-4 180,-4 171,0 180,-1 180,-19 0,-51 0,-51 -196,-51 l -183,0 -10,-37 c -5,-21 -40,-172 -76,-335 -74,-326 -77,-364 -29,-411 33,-33 59,-37 251,-37 l 165,0 -6,-23 c -3,-12 -6,-30 -6,-39 0,-17 -27,-18 -434,-18 l -433,0 14,73 c 8,39 66,316 129,615 63,298 114,544 114,547 0,3 88,5 195,5 107,0 195,-4 195,-9 z M 2506,1503 c 22,-12 57,-40 77,-62 59,-65 70,-140 40,-276 l -16,-75 -344,0 c -188,0 -343,-3 -343,-7 0,-3 -20,-102 -45,-220 -25,-117 -45,-215 -45,-218 0,-12 183,-4 215,9 43,18 90,82 106,146 l 13,50 193,0 c 106,0 193,-4 193,-8 0,-12 -72,-118 -110,-164 l -32,-38 102,0 c 101,0 102,0 96,-22 -3,-13 -6,-31 -6,-40 0,-17 -35,-18 -590,-18 -324,0 -590,3 -590,8 0,36 76,437 96,507 55,193 148,341 252,402 82,48 115,52 417,50 266,-2 282,-3 321,-24 z m 754,-38 c -61,-212 -41,-333 58,-351 115,-22 198,82 232,286 5,36 13,80 16,98 l 5,32 194,0 c 107,0 195,-3 195,-7 0,-28 -54,-221 -71,-254 -26,-51 -91,-122 -147,-161 l -43,-29 31,-35 c 58,-66 75,-111 73,-194 0,-41 -8,-105 -16,-142 l -15,-68 49,0 c 52,0 52,0 43,-49 l -6,-31 -244,0 c -143,0 -244,4 -244,9 0,5 11,51 24,101 61,225 37,342 -71,357 -112,15 -193,-94 -228,-310 -9,-51 -18,-107 -21,-124 l -5,-33 -195,0 c -181,0 -195,1 -190,18 3,9 15,61 26,115 26,125 41,168 75,217 28,41 88,99 138,136 l 29,20 -41,49 c -39,47 -71,123 -71,169 0,11 10,71 22,133 l 22,113 197,0 198,0 -19,-65 z m 2752,32 c 69,-40 100,-98 106,-197 5,-87 -5,-158 -49,-342 -32,-131 -57,-183 -139,-280 l -32,-38 101,0 c 109,0 110,-1 95,-57 l -6,-23 -589,0 c -324,0 -589,3 -589,8 0,36 76,437 96,507 55,193 148,341 252,402 83,49 115,53 422,50 l 285,-2 47,-28 z"
           id="path2991" />
        <path
           d="m 2110,1450 c -44,-9 -88,-39 -110,-75 -18,-29 -58,-170 -60,-207 0,-5 65,-8 144,-8 111,0 145,3 149,13 14,36 29,166 23,191 -15,59 -83,99 -146,86 z m 68,-122 c 2,-19 -2,-46 -7,-61 -10,-25 -15,-27 -71,-27 -68,0 -70,4 -44,69 30,75 116,89 122,19 z"
           id="path2993" />
        <path
           d="m 5567,1446 c -49,-18 -62,-30 -86,-79 -15,-32 -161,-687 -161,-723 0,-3 47,-5 104,-2 99,3 107,5 143,34 21,17 45,46 54,65 20,42 129,550 129,601 0,97 -78,141 -183,104 z m 87,-72 c 24,-9 21,-40 -34,-311 -60,-294 -64,-307 -95,-327 -27,-17 -105,-22 -105,-6 0,22 121,577 131,603 17,41 59,58 103,41 z"
           id="path2995" />
        <path
           d="m 8335,1858 c -3,-13 -15,-72 -28,-133 l -22,-110 -195,-6 c -206,-6 -237,-12 -326,-64 -65,-38 -155,-144 -202,-237 -73,-147 -108,-275 -162,-593 -17,-99 -33,-192 -36,-208 l -6,-27 1314,0 1313,0 26,120 25,120 -68,0 c -37,0 -68,3 -68,6 0,4 9,21 19,38 19,31 51,127 51,153 0,10 -54,13 -274,13 -253,0 -275,-1 -280,-17 -2,-10 -10,-45 -16,-77 -16,-78 -51,-116 -109,-116 -23,0 -41,4 -41,9 0,11 48,238 56,263 5,16 33,18 347,20 l 342,3 23,110 c 40,189 21,292 -70,385 -22,23 -65,54 -96,68 -57,27 -58,27 -335,30 -180,2 -296,-1 -332,-8 -187,-39 -327,-197 -414,-469 -27,-82 -43,-152 -82,-358 -10,-50 -12,-53 -40,-53 -34,0 -35,3 -10,44 11,17 26,56 35,86 18,64 216,995 216,1016 0,12 -45,14 -275,14 l -275,0 -5,-22 z m 459,-75 c -2,-10 -45,-209 -95,-443 -49,-234 -96,-446 -104,-472 -14,-48 -61,-126 -115,-190 l -32,-38 101,0 c 109,0 110,-1 95,-58 l -6,-22 -589,0 c -324,0 -589,3 -589,8 0,36 76,437 96,507 61,214 156,355 282,417 l 66,33 222,3 c 158,3 224,7 227,15 2,7 15,67 28,135 l 23,122 197,0 c 183,0 197,-1 193,-17 z m 1032,-280 c 22,-12 57,-40 77,-62 59,-65 70,-140 40,-276 l -16,-75 -344,0 c -188,0 -343,-3 -343,-7 0,-3 -20,-102 -45,-220 -25,-117 -45,-215 -45,-218 0,-12 183,-4 215,9 43,18 90,82 106,146 l 13,50 193,0 c 106,0 193,-4 193,-8 0,-12 -72,-118 -110,-164 l -32,-38 106,0 c 80,0 104,-3 102,-12 -3,-7 -7,-25 -10,-41 l -6,-27 -590,0 c -325,0 -590,3 -590,8 0,36 76,437 96,507 55,193 148,341 252,402 82,48 115,52 417,50 266,-2 282,-3 321,-24 z"
           id="path2997" />
        <path
           d="m 8115,1441 c -46,-21 -77,-53 -93,-96 -10,-24 -152,-681 -152,-700 0,-11 182,-4 213,9 41,17 94,76 118,134 11,25 38,147 59,272 22,125 47,263 55,306 8,44 15,82 15,87 0,4 -39,7 -87,7 -64,0 -99,-5 -128,-19 z m 115,-73 c 0,-43 -85,-502 -101,-544 -26,-68 -67,-104 -120,-104 -21,0 -39,3 -39,8 0,4 28,140 62,302 56,265 65,298 89,323 21,21 37,27 68,27 25,0 41,-5 41,-12 z"
           id="path2999" />
        <path
           d="m 9430,1450 c -44,-9 -88,-39 -110,-75 -18,-29 -58,-170 -60,-207 0,-5 65,-8 144,-8 111,0 145,3 149,13 14,36 29,166 23,191 -15,59 -83,99 -146,86 z m 68,-122 c 2,-19 -2,-46 -7,-61 -10,-25 -15,-27 -71,-27 -68,0 -70,4 -44,69 30,75 116,89 122,19 z"
           id="path3001" />
        <path
           d="m 18335,1868 c -2,-7 -56,-260 -120,-563 -64,-302 -118,-558 -121,-567 -3,-11 -15,-18 -30,-18 -24,0 -24,0 -8,31 28,55 44,110 80,269 47,206 53,306 24,382 -27,73 -92,141 -168,176 l -57,27 -482,3 -482,3 -6,-23 c -3,-13 -43,-203 -90,-423 -47,-220 -87,-410 -90,-422 -6,-25 -35,-32 -35,-9 0,8 23,119 51,248 60,279 64,348 24,436 -43,93 -112,152 -210,178 -78,21 -1028,20 -1110,-1 -173,-45 -299,-187 -386,-436 -16,-46 -28,-73 -25,-59 33,173 32,250 -4,324 -30,63 -92,123 -158,154 -57,27 -58,27 -335,30 -180,2 -296,-1 -332,-8 -187,-39 -327,-197 -414,-469 -27,-82 -43,-152 -82,-358 -7,-35 -15,-53 -25,-53 -11,0 -13,7 -7,28 4,15 7,68 7,117 0,79 -3,97 -28,147 l -29,57 50,50 c 70,71 108,154 148,328 19,81 35,151 35,156 0,4 -125,6 -277,5 l -278,-3 -22,-129 c -35,-204 -63,-268 -124,-281 -70,-16 -75,36 -24,244 19,78 35,149 35,157 0,12 -42,14 -274,14 l -274,0 -22,-92 c -44,-189 -43,-303 5,-397 l 24,-48 -45,-44 c -56,-54 -117,-162 -140,-246 -15,-55 -20,-63 -40,-63 -29,0 -29,4 -5,44 19,31 51,127 51,153 0,10 -54,13 -274,13 -253,0 -275,-1 -280,-17 -2,-10 -10,-45 -16,-77 -16,-78 -51,-116 -109,-116 -23,0 -41,4 -41,9 0,11 48,238 56,263 5,16 33,18 347,20 l 342,3 23,110 c 40,189 21,292 -70,385 -22,23 -65,54 -96,68 -57,27 -58,27 -335,30 -180,2 -296,-1 -332,-8 -186,-39 -327,-197 -413,-465 -36,-111 -53,-190 -92,-420 -17,-99 -33,-192 -36,-208 l -6,-27 908,2 908,3 28,163 c 38,222 76,302 144,302 56,0 55,-64 -1,-299 -19,-79 -35,-150 -35,-157 0,-12 184,-14 1203,-14 l 1203,0 83,393 c 76,358 106,475 118,463 4,-3 -157,-782 -173,-839 -5,-16 11,-17 272,-15 l 278,3 91,433 c 85,399 116,522 102,397 -3,-27 -42,-224 -86,-438 -45,-213 -81,-390 -81,-392 0,-3 133,-5 296,-5 277,0 295,-1 290,-17 -2,-10 -19,-85 -36,-168 -17,-82 -34,-158 -36,-167 -5,-17 13,-18 274,-18 l 279,0 38,185 38,185 1351,2 1350,3 18,75 c 9,41 17,94 18,118 l 0,42 -60,0 c -33,0 -60,2 -60,4 0,2 11,26 25,53 14,26 41,118 60,203 31,136 35,172 35,293 l 0,139 -35,53 c -37,55 -82,91 -150,122 -35,15 -77,18 -318,21 -180,2 -296,-1 -332,-8 -187,-39 -327,-197 -414,-469 -27,-82 -43,-152 -82,-358 -7,-35 -15,-53 -25,-53 -8,0 -14,4 -14,9 0,5 54,264 120,575 66,312 120,569 120,571 0,3 -124,5 -275,5 -212,0 -277,-3 -280,-12 z m 455,-77 c 0,-6 -54,-265 -120,-576 -66,-312 -120,-569 -120,-571 0,-2 23,-4 50,-4 53,0 53,0 44,-49 l -6,-31 -248,0 -247,0 14,73 c 8,39 66,316 129,615 63,298 114,544 114,547 0,3 88,5 195,5 115,0 195,-4 195,-9 z m -6424,-288 c 22,-12 57,-40 77,-62 59,-65 70,-140 40,-276 l -16,-75 -344,0 c -188,0 -343,-3 -343,-7 0,-3 -20,-102 -45,-220 -25,-117 -45,-215 -45,-218 0,-12 183,-4 215,9 43,18 90,82 106,146 l 13,50 193,0 c 106,0 193,-4 193,-8 0,-12 -72,-118 -110,-164 l -32,-38 102,0 c 101,0 102,0 96,-22 -3,-13 -6,-31 -6,-40 0,-17 -35,-18 -590,-18 -324,0 -590,3 -590,8 0,36 76,437 96,507 55,193 148,341 252,402 82,48 115,52 417,50 266,-2 282,-3 321,-24 z m 754,-38 c -61,-212 -41,-333 58,-351 115,-22 198,82 232,286 5,36 13,80 16,98 l 5,32 194,0 c 107,0 195,-3 195,-7 0,-28 -54,-221 -71,-254 -26,-51 -91,-122 -147,-161 l -43,-29 31,-35 c 58,-66 75,-111 73,-194 0,-41 -8,-105 -16,-142 l -15,-68 54,0 c 38,0 52,-4 50,-13 -3,-6 -7,-24 -10,-39 l -6,-28 -245,0 c -144,0 -245,4 -245,9 0,5 11,51 24,101 61,225 37,342 -71,357 -112,15 -193,-94 -228,-310 -9,-51 -18,-107 -21,-124 l -5,-33 -195,0 c -181,0 -195,1 -190,18 3,9 15,61 26,115 26,125 41,168 75,217 28,41 88,99 138,136 l 29,20 -41,49 c -39,47 -71,123 -71,169 0,11 10,71 22,133 l 22,113 197,0 198,0 -19,-65 z m 1786,38 c 22,-12 57,-40 77,-62 59,-65 70,-140 40,-276 l -16,-75 -344,0 c -188,0 -343,-3 -343,-7 0,-3 -20,-102 -45,-220 -25,-117 -45,-215 -45,-218 0,-12 183,-4 215,9 43,18 90,82 106,146 l 13,50 193,0 c 106,0 193,-4 193,-8 0,-12 -72,-118 -110,-164 l -32,-38 99,0 100,0 -6,-37 -6,-38 -588,-3 c -323,-1 -587,1 -587,5 0,37 76,438 96,508 55,193 148,341 252,402 82,48 115,52 417,50 266,-2 282,-3 321,-24 z m 1696,13 c 103,-31 170,-123 170,-233 0,-32 -27,-183 -61,-341 -34,-155 -61,-287 -61,-292 0,-6 23,-10 51,-10 48,0 51,-1 45,-22 -3,-13 -6,-31 -6,-40 0,-17 -19,-18 -250,-18 -137,0 -250,2 -250,5 0,2 32,156 70,341 81,388 87,428 71,477 -14,42 -41,62 -98,71 -35,6 -42,5 -47,-11 -2,-10 -44,-202 -91,-428 -48,-226 -89,-420 -92,-432 -5,-23 -6,-23 -199,-23 -107,0 -194,2 -194,5 0,2 41,197 90,432 50,235 92,435 93,443 3,20 -82,16 -123,-5 -67,-35 -77,-66 -174,-525 l -73,-345 -197,-3 c -185,-2 -197,-1 -192,15 13,43 28,120 28,143 -1,14 8,77 19,140 67,394 191,603 388,656 70,19 1021,19 1083,0 z m 1341,0 c 156,-47 182,-154 114,-478 -40,-192 -63,-248 -136,-335 l -53,-63 101,0 c 56,0 101,-4 101,-9 0,-5 -3,-23 -6,-40 l -6,-31 -419,0 -419,0 -5,-22 c -3,-13 -18,-86 -35,-163 -17,-77 -32,-150 -35,-162 -5,-23 -6,-23 -201,-23 -181,0 -195,1 -190,18 2,9 66,311 142,670 l 138,652 431,0 c 338,0 442,-3 478,-14 z m 1899,-19 c 69,-40 100,-98 106,-197 5,-87 -5,-158 -49,-342 -32,-131 -57,-183 -139,-280 l -32,-38 101,0 c 109,0 110,-1 95,-57 l -6,-23 -589,0 c -324,0 -589,3 -589,8 0,36 76,437 96,507 55,193 148,341 252,402 83,49 115,53 422,50 l 285,-2 47,-28 z m -4774,-524 -10,-48 -278,3 c -260,2 -279,1 -284,-15 -2,-10 -10,-45 -16,-77 -16,-78 -51,-116 -109,-116 -23,0 -41,4 -41,9 0,11 48,238 56,263 5,16 33,18 347,21 188,1 342,3 343,5 1,1 -3,-19 -8,-45 z m -21,-105 c -3,-8 -6,-5 -6,6 -1,11 2,17 5,13 3,-3 4,-12 1,-19 z m -17,-93 c -9,-44 -15,-55 -31,-55 -24,0 -24,0 6,56 14,26 25,54 26,63 0,10 2,11 6,4 2,-7 -1,-37 -7,-68 z"
           id="path3003" />
        <path
           d="m 11970,1450 c -44,-9 -88,-39 -110,-75 -18,-29 -58,-170 -60,-207 0,-5 65,-8 144,-8 111,0 145,3 149,13 14,36 29,166 23,191 -15,59 -83,99 -146,86 z m 68,-122 c 2,-19 -2,-46 -7,-61 -10,-25 -15,-27 -71,-27 -68,0 -70,4 -44,69 30,75 116,89 122,19 z"
           id="path3005" />
        <path
           d="m 14510,1450 c -44,-9 -88,-39 -110,-75 -18,-29 -58,-170 -60,-207 0,-5 65,-8 144,-8 111,0 145,3 149,13 14,36 29,166 23,191 -15,59 -83,99 -146,86 z m 68,-122 c 2,-19 -2,-46 -7,-61 -10,-25 -15,-27 -71,-27 -68,0 -70,4 -44,69 30,75 116,89 122,19 z"
           id="path3007" />
        <path
           d="m 17405,1438 c -16,-68 -165,-780 -165,-789 0,-8 43,-10 129,-8 127,4 130,5 168,35 21,16 46,46 55,65 20,39 130,555 130,610 1,85 -43,109 -201,109 -106,0 -111,-1 -116,-22 z m 234,-76 c 6,-12 -7,-97 -45,-281 -29,-146 -59,-280 -65,-298 -16,-50 -43,-63 -124,-63 l -71,0 70,330 70,330 78,0 c 63,0 79,-3 87,-18 z"
           id="path3009" />
        <path
           d="m 19397,1446 c -49,-18 -62,-30 -86,-79 -15,-32 -161,-687 -161,-723 0,-3 47,-5 104,-2 99,3 107,5 143,34 21,17 45,46 54,65 20,42 129,550 129,601 0,97 -78,141 -183,104 z m 87,-72 c 24,-9 21,-40 -34,-311 -60,-294 -64,-307 -95,-327 -27,-17 -105,-22 -105,-6 0,22 121,577 131,603 17,41 59,58 103,41 z"
           id="path3011" />
      </g>
    </g>
  </g>
</svg>
